<?xml version="1.0" standalone="no"?>
<!DOCTYPE svg PUBLIC "-//W3C//DTD SVG 20010904//EN"
 "http://www.w3.org/TR/2001/REC-SVG-20010904/DTD/svg10.dtd">
<svg version="1.0" xmlns="http://www.w3.org/2000/svg"
 width="384.000000pt" height="512.000000pt" viewBox="0 0 384.000000 512.000000"
 preserveAspectRatio="xMidYMid meet">

<g transform="translate(0.000000,512.000000) scale(0.100000,-0.100000)"
fill="#ED2B2A" stroke="none">
<path d="M1960 5109 c-121 -24 -274 -150 -340 -282 -25 -51 -37 -66 -49 -62
-260 103 -526 -52 -638 -370 l-28 -80 -3 -903 -3 -904 -72 69 c-82 77 -155
117 -248 134 -191 35 -394 -84 -496 -291 -59 -119 -77 -200 -76 -345 0 -137
21 -233 73 -334 37 -74 794 -1024 919 -1154 291 -302 640 -492 1036 -563 136
-25 363 -29 495 -10 625 92 1123 643 1269 1407 38 201 42 332 39 1299 -4 1037
0 975 -79 1138 -93 192 -287 316 -466 298 -35 -4 -69 -9 -76 -12 -11 -4 -16
12 -21 68 -17 184 -79 332 -186 438 -74 74 -139 112 -231 136 -70 18 -158 14
-228 -11 l-40 -14 -38 72 c-45 85 -145 190 -219 229 -96 52 -193 67 -294 47z
m154 -490 c64 -51 60 8 66 -994 l5 -910 22 -41 c44 -83 129 -127 202 -106 54
17 87 46 119 105 l27 52 5 750 c5 712 6 752 24 781 54 89 163 84 214 -9 16
-29 17 -96 22 -782 5 -744 5 -750 27 -790 78 -146 238 -148 318 -4 l30 54 5
430 c4 313 8 436 17 451 42 73 126 96 182 49 65 -55 63 -10 58 -1060 -3 -837
-6 -960 -21 -1035 -107 -548 -411 -927 -842 -1052 -70 -20 -101 -23 -274 -23
-151 0 -214 4 -280 18 -280 60 -530 194 -749 402 -117 112 -882 1061 -901
1119 -14 43 -7 103 16 147 31 60 114 87 162 53 13 -9 106 -120 208 -248 202
-253 238 -286 314 -286 82 0 158 72 179 171 8 34 11 418 11 1195 0 1252 -3
1184 59 1237 60 50 137 30 179 -46 16 -29 17 -96 22 -782 5 -750 5 -750 27
-791 44 -83 129 -127 202 -106 54 17 87 46 119 105 l27 52 5 910 c4 693 8 915
17 931 40 70 124 95 177 53z"/>
</g>
</svg>
