<?xml version="1.0" standalone="no"?>
<!DOCTYPE svg PUBLIC "-//W3C//DTD SVG 20010904//EN"
 "http://www.w3.org/TR/2001/REC-SVG-20010904/DTD/svg10.dtd">
<svg version="1.0" xmlns="http://www.w3.org/2000/svg"
 width="384.000000pt" height="512.000000pt" viewBox="0 0 384.000000 512.000000"
 preserveAspectRatio="xMidYMid meet">

<g transform="translate(0.000000,512.000000) scale(0.100000,-0.100000)"
fill="#ED2B2A" stroke="none">
<path d="M1178 5110 c-241 -43 -422 -200 -505 -435 l-28 -80 -4 -380 -3 -380
-90 -65 c-97 -70 -288 -261 -369 -368 -115 -152 -168 -314 -177 -538 -18 -511
163 -951 520 -1261 98 -85 288 -212 370 -248 l67 -29 3 -576 c3 -567 3 -576
25 -615 46 -86 118 -130 213 -129 96 1 167 44 213 129 22 40 22 42 22 745 0
703 0 705 -22 745 -43 81 -104 120 -214 135 -94 13 -134 32 -258 120 -207 149
-344 332 -414 555 -39 123 -49 214 -45 385 3 149 4 158 34 220 31 66 191 255
254 300 l30 21 0 -173 c0 -160 2 -177 23 -218 24 -48 88 -90 137 -90 49 0 113
42 138 90 l22 44 0 757 0 756 23 34 c71 105 203 106 273 2 13 -19 24 -56 27
-92 15 -139 105 -225 237 -226 57 0 73 5 132 38 80 45 137 49 189 14 51 -34
75 -77 82 -146 15 -139 105 -225 237 -226 57 0 73 5 132 38 80 45 137 49 189
14 51 -34 75 -77 82 -146 15 -139 105 -225 237 -226 57 0 73 5 132 38 107 60
186 46 245 -42 l23 -34 0 -586 c0 -664 -1 -668 -74 -816 -83 -166 -174 -253
-363 -347 -139 -68 -174 -103 -193 -192 -8 -35 -10 -265 -8 -751 3 -695 3
-700 25 -740 46 -86 118 -130 213 -129 96 1 167 44 213 129 22 39 22 49 27
661 l5 622 91 60 c270 181 438 427 517 757 21 88 22 108 22 745 l0 655 -27 81
c-89 260 -319 431 -592 440 l-100 3 -47 65 c-114 154 -290 244 -493 251 l-100
4 -47 65 c-114 154 -290 244 -493 251 l-100 4 -47 65 c-77 105 -193 185 -323
225 -78 24 -217 34 -288 21z"/>
</g>
</svg>
