<?xml version="1.0" standalone="no"?>
<!DOCTYPE svg PUBLIC "-//W3C//DTD SVG 20010904//EN"
 "http://www.w3.org/TR/2001/REC-SVG-20010904/DTD/svg10.dtd">
<svg version="1.0" xmlns="http://www.w3.org/2000/svg"
 width="401.000000pt" height="512.000000pt" viewBox="0 0 401.000000 512.000000"
 preserveAspectRatio="xMidYMid meet">

<g transform="translate(0.000000,512.000000) scale(0.100000,-0.100000)"
fill="#ED2B2A" stroke="none">
<path d="M1965 5104 c-260 -58 -456 -271 -497 -541 l-11 -78 -18 73 c-24 95
-49 151 -105 228 -85 120 -223 212 -374 250 -86 22 -249 15 -340 -15 -91 -29
-182 -85 -254 -157 -72 -73 -118 -145 -154 -246 -23 -64 -26 -88 -26 -198 l0
-125 192 -861 c106 -473 192 -868 192 -878 0 -9 -15 -29 -32 -44 -74 -62 -266
-237 -301 -275 -93 -102 -170 -243 -209 -382 -30 -111 -33 -428 -4 -580 121
-652 633 -1148 1296 -1256 67 -11 244 -14 850 -14 696 0 773 2 853 18 483 98
834 442 954 934 24 101 32 1301 9 1414 -61 293 -327 508 -630 509 l-81 1 -34
50 c-48 70 -140 151 -221 193 -79 42 -201 76 -272 76 l-48 0 0 53 c0 28 9 327
21 663 20 568 20 617 5 690 -45 224 -212 409 -435 484 -85 28 -233 35 -326 14z
m198 -478 c42 -17 85 -68 92 -110 4 -18 -5 -368 -19 -777 -31 -893 -32 -939
-9 -987 28 -58 89 -110 151 -128 85 -25 149 -9 246 61 39 28 57 35 96 35 89 0
153 -67 162 -168 13 -137 106 -226 238 -227 57 0 73 5 132 38 107 60 186 46
245 -42 l23 -34 0 -579 c0 -661 -1 -670 -77 -828 -39 -81 -59 -108 -137 -185
-73 -73 -107 -99 -176 -133 -165 -81 -120 -77 -975 -77 l-760 0 -88 23 c-409
109 -700 396 -800 791 -18 72 -21 115 -22 261 l0 176 38 77 c34 68 52 89 170
197 73 66 134 120 138 120 3 0 35 -131 72 -291 40 -174 75 -305 87 -325 29
-46 99 -78 153 -70 74 12 137 82 137 152 0 15 -49 242 -109 503 -215 934 -511
2279 -511 2322 0 152 201 206 291 79 11 -16 93 -365 229 -980 116 -525 218
-971 227 -992 20 -47 77 -103 128 -124 23 -9 67 -16 102 -16 122 -1 224 93
237 216 3 28 19 467 36 976 17 509 35 939 41 956 26 82 128 125 212 90z"/>
</g>
</svg>
